<svg viewBox="0 0 1676 1056" xmlns="http://www.w3.org/2000/svg">
<title>Oro’s chart of the stars made by him about 250,000 years ago.</title>
<path stroke="#000" stroke-width="5" d="M-4.231-.964h1684.07v1064.62H-4.231z"/><circle cx="270.861" cy="85.99" r="9" fill="#fff" stroke="#fff"/><path d="M278.27 76.335l9.173-10.152M251.486 70.614l10.578 7.924M282.695 84.64l13.444.019M271.932 73.061l-.192-14.571M251.815 86.517l5.799.062M253.052 101.764l8.515-5.874M267.231 106.478l1.284-8.305M281.55 103.585l-5.395-5.957" fill="none" stroke="#fff" stroke-width="3.5"/><circle cx="614.501" cy="220.592" r="9" fill="#fff" stroke="#fff"/><path d="M625.343 217.881l17.861-6.232M591.56 214.706l10.657.187M625.572 223.657l6.597 3.312M609.148 208.848l-7.04-8.647M588.289 231.297l13.055-6.418M608.652 246.197l.623-14.589M616.927 205.339l1.416-8.904M623.088 243.469l-3.096-9.853" fill="none" stroke="#fff" stroke-width="3.5"/><circle cx="562.234" cy="315.893" r="6.932" fill="#fff" stroke="#fff"/><path d="M567.097 307.938l6.279-6.315M546.559 315.194l5.932-.328M571.284 315.123l12.252.14M556.251 307.126l-8.46-7.264M546.241 328.409l8.271-6.014M560.036 333.183l.337-8.217M563.433 303.027l-.301-13.106M576.341 329.812l-7.809-6.76" fill="none" stroke="#fff" stroke-width="3.5"/><circle cx="64.692" cy="584.509" r="9" fill="#fff" stroke="#fff"/><path d="M76.862 579.185l4.566-5.055M63.425 566.441l4.501-4.939M42.783 582.972l6.869.043M73.087 592.588l5.33 5.107M52.938 573.727l-3.495-2.917M50.854 594.241l2.999-2.995M60.981 601.057l.359-4.831M63.157 573.238l.257-7.686M82.697 583.667l-6.941.08" fill="none" stroke="#fff" stroke-width="3.5"/><circle cx="293.432" cy="499.564" r="7.21" fill="#fff" stroke="#fff"/><path d="M300.313 492.018l2.269-6.285M274.556 498.156l8.809.123M300.566 508.097l5.331 5.107M283.699 511.438l2.999-2.996M293.483 510.247l.01-.93M292.905 490.131l.257-7.686M309.65 498.909l-6.941.08" fill="none" stroke="#fff" stroke-width="3.5"/><circle cx="413.322" cy="880.11" r="6.675" fill="#fff" stroke="#fff"/><path d="M418.736 870.856l4.612-4.835M425.185 874.77l7.461-6.113M396.13 888.604l7.916-3.868M417.794 892.804l1.528 3.681M399.347 871.14l3.153 2.833M410.711 894.954l.01-.93M413.194 866.726l-.261-7.686M428.935 889.242l-6.626-3.516" fill="none" stroke="#fff" stroke-width="3.5"/><circle cx="798.698" cy="597.869" r="5.939" fill="#fff" stroke="#fff"/><path d="M797.902 585.457l-.625-6.652M782.315 594.583l3.544-.134M768.673 590.617l3.544-.134M812.587 589.106l2.393-2.617M817.312 576.915l-2.786-2.196M801.707 606.958l6.59 8.977M783.725 606.81l7.102-4.064M795.699 618.164l.027-5.336M794.178 587.002l-2.932-7.11M814.114 600.522l-6.782-1.481" fill="none" stroke="#fff" stroke-width="3.5"/><circle cx="1035.64" cy="139.008" r="8" fill="#fff" stroke="#fff"/><path d="M1044.21 133.691l16.603-9.066M1016.93 138.766l7.87.034M1045.35 142.532l4.225.281M1031.07 128.648l-7.04-8.648M1021.35 153.827l6.5-4.812M1031.34 156.756l1.817-5.679M1035.08 128.225l4.527-8.948M1045.81 157.288l-5.184-8.933" fill="none" stroke="#fff" stroke-width="3.5"/><ellipse cx="1188.98" cy="177.334" rx="7.135" ry="7.126" fill="#fff" stroke="#fff"/><path d="M1198.5 174.843l8.353-3.794M1171.37 176.094l7.87.034M1196.54 185.427l3.603 2.225M1186.2 168.441l-6.342-5.839M1176.88 191.383l3.354-3.115M1188 196.489l.331-6.441M1195.14 170.628l1.795-9.866" fill="none" stroke="#fff" stroke-width="3.5"/><ellipse cx="1273.65" cy="197.303" rx="8.006" ry="7.995" fill="#fff" stroke="#fff"/><path d="M1285.07 188.873l7.171-5.721M1256.8 203.974l7.605-2.026M1283.15 201.465l13.127 8.442M1262.95 191.142l-6.342-5.839M1264.39 214.662l3.598-4.655M1275.88 218.586l-.273-6.443M1274.17 185.836l.195-10.603" fill="none" stroke="#fff" stroke-width="3.5"/><circle cx="679.533" cy="424.303" r="9" fill="#fff" stroke="#fff"/><path d="M688.331 415.547l8.491-6.441M690.161 432.59l8.52 6.644M668.97 414.593l-6.579-4.992M654.752 436.277l13.054-6.418M676.086 445.805l.481-8.654M680.692 408.819l.091-9.016" fill="none" stroke="#fff" stroke-width="3.5"/><circle cx="1052.83" cy="985.567" r="8.435" fill="#fff" stroke="#fff"/><path d="M1062.36 980.871l8.492-6.441M1061.02 990.729l8.521 6.644M1047.64 974.446l-4.271-7.07M1034.51 991.756l4.833-1.555M1033.25 976.534l3.722 3.454" fill="none" stroke="#fff" stroke-width="3.5"/><path d="M1048.79 1007.72l.439-11.322" fill="none" stroke="#fff" stroke-width="3"/><path d="M1055.24 974.13l.092-9.016" fill="none" stroke="#fff" stroke-width="3.5"/><circle cx="1277.94" cy="854.477" r="9" fill="#fff" stroke="#fff"/><path d="M1288.93 850.132l9.76-4.282M1289.33 858.464l9.439 5.257M1264.98 850.62l-6.58-4.992M1273.31 842.955l-4.542-10.495M1261.06 864.836l7.036-2.567M1268.37 873.889l2.863-3.52M1287 873.634l-4.339-7.504M1284.14 842.304l6.144-9.876" fill="none" stroke="#fff" stroke-width="3.5"/><circle cx="1476.63" cy="374.155" r="9" fill="#fff" stroke="#fff"/><path d="M1487.17 370.995l9.144-5.476M1491.43 381.759l9.076 5.863M1465.66 368.282l-6.579-4.993M1460.35 384.127l5.526-2.158M1475.39 397.644l1.002-12.085M1477.65 361.015l.092-9.016" fill="none" stroke="#fff" stroke-width="3.5"/><ellipse cx="1169.89" cy="640.057" rx="9.326" ry="9.398" fill="#fff" stroke="#fff"/><path d="M1181.39 639.015l10.657-.164M1143.11 642.269l14.097-.301M1184.11 640.719l9.076 5.863M1178.37 649.203l6.934 8.286M1164.17 629.144l-5.589-6.081M1176.31 628.755l5.434-6.219M1159.94 655.94l3.371-4.882M1172.52 663.904l-.477-12.117M1169.61 627.919l.091-11.07" fill="none" stroke="#fff" stroke-width="3.5"/><circle cx="236.438" cy="317.731" r="9" fill="#fff" stroke="#fff"/><path d="M248.239 309.802l14.598-12.393M212.98 303.054l11.296 8.823M247.366 329.76l.904 6.364M237.379 306.085l-.062-15.854M218.63 333.505l8.631-6.408M234.548 338.377l.221-9.332M262.254 331.132l-13.887-7.791" fill="none" stroke="#fff" stroke-width="3.5"/><circle cx="107.941" cy="329.884" r="7" fill="#fff" stroke="#fff"/><path d="M117.421 322.776l4.45-3.789M90.149 327.473l8.551.033M114.475 338.566l4.682 4.405M106.946 320.62l-.406-5.867M118.404 330.757l2.079.02" fill="none" stroke="#fff" stroke-width="3"/><path d="M106.149 344.246l.395-4.4" fill="none" stroke="#fff" stroke-width="3.5"/><ellipse cx="282.392" cy="408.336" rx="6.099" ry="6.008" fill="#fff" stroke="#fff"/><path d="M286.124 400.386l3.751-4.482M263.855 411.462l8.517-.761M268.426 417.742l8.204-2.412M288.066 414.472l2.774 1.912M281.266 399.214l-3.427-8.523M290.706 407.234l6.132.076" fill="none" stroke="#fff" stroke-width="3"/><path d="M280.375 422.941l4.416-.088" fill="none" stroke="#fff" stroke-width="3.5"/><ellipse cx="327.543" cy="388.905" rx="6.099" ry="6.008" fill="#fff" stroke="#fff"/><path d="M330.824 381.635l2.209-2.884M314.58 392.063l5.303-.918M319.121 399.591l3.034-2.816M330.06 395.56l2.059 2.667M325.559 379.677l-5.412-7.423M335.213 387.257l7.87.076" fill="none" stroke="#fff" stroke-width="3"/><path d="M333.186 398.609l2.873.152" fill="none" stroke="#fff" stroke-width="3.5"/><ellipse cx="1247.07" cy="661.59" rx="6.099" ry="6.008" fill="#fff" stroke="#fff"/><path d="M1254.31 653.861l2.209-2.885M1236.2 650.751l-3.334-.326M1238.15 659.097l-4.248-.323M1238.66 670.002l2.339-2.917M1247.56 669.906l.158 3.366M1244.42 652.698l-.246-7.388M1255.03 663.782l7.324 2.881" fill="none" stroke="#fff" stroke-width="3"/><ellipse cx="1208.52" cy="610.023" rx="5.407" ry="5.327" fill="#fff" stroke="#fff"/><path d="M1220.34 606.618l.718-3.561M1198.17 606.712l-4.247-.323M1199.71 614.942l-4.248-.323" fill="none" stroke="#fff" stroke-width="3"/><path d="M1201.61 621.651l1.693-3.334" fill="none" stroke="#fff" stroke-width="5"/><path d="M1212.51 619.356l4.356 10.232M1207.23 602.632l-2.019-7.111M1219.7 619.828l7.086-3.425" fill="none" stroke="#fff" stroke-width="3"/><ellipse cx="1592.32" cy="398.865" rx="2.506" ry="2.469" fill="#fff"/><ellipse cx="1599.46" cy="396.995" rx="2.989" ry="2.944" fill="#fff"/><ellipse cx="1603.3" cy="377.833" rx="2.506" ry="2.469" fill="#fff"/><ellipse cx="1610.49" cy="382.627" rx="2.506" ry="2.469" fill="#fff"/><ellipse cx="1608.19" cy="395.495" rx="2.506" ry="2.469" fill="#fff"/><path d="M1595.41 369.228l-.043-5.917M1583.1 391.597l-4.248-.323M1582.55 401.572l-4.247-.323M1599.12 390.462l.306-7.386M1602.97 405.602l-1.562-3.342M1599.76 422.264l-.088-3.687M1611.11 411.406l-3.687-.135M1616.9 402.386l-2.879-2.306M1591.82 411.995l-3.916 5.942" fill="none" stroke="#fff" stroke-width="3"/><ellipse cx="1167.55" cy="879.21" rx="6.099" ry="6.008" fill="#fff"/><path d="M1174.79 871.481l2.209-2.884M1158.64 872.004l-5.288-3.958M1159.14 887.622l2.339-2.917M1168.04 887.526l.158 3.366M1159.96 898.532l.158 3.365M1168.28 869.526l3.213-6.371M1175.5 881.403l3.116 1.793" fill="none" stroke="#fff" stroke-width="3"/><ellipse cx="1208.31" cy="763.037" rx="6.099" ry="6.008" fill="#fff"/><path d="M1201.33 755.717l-2.819-1.81M1211.9 771.376l2.267 2.493M1207.17 755.036l1.973-4.238M1216.96 765.6l6.397.476" fill="none" stroke="#fff" stroke-width="3"/><ellipse cx="1192.09" cy="770.757" rx="6.417" ry="6.321" fill="#fff"/><ellipse cx="1197.49" cy="790.244" rx="4.223" ry="4.188" fill="#fff"/><ellipse cx="1210.85" cy="812.8" rx="4.223" ry="4.188" fill="#fff"/><ellipse cx="1211.36" cy="825.319" rx="4.223" ry="4.188" fill="#fff"/><path d="M1181.36 764.637l-2.909-1.661M1182.51 773.728l-5.258 3.766M1192.16 779.475l.158 3.366M1189.01 762.267l-.246-7.388M1199.62 773.351l7.324 2.881M1218.72 811.766l7.869-.118" fill="none" stroke="#fff" stroke-width="3"/><path d="M1198.72 810.717l1.654 10.556" fill="none" stroke="#fff" stroke-width="2.5"/><path d="M1203.54 831.165l-4.045 4.604" fill="none" stroke="#fff" stroke-width="3"/><path d="M1207.08 800.329l1.038 6.575" fill="none" stroke="#fff" stroke-width="2.5"/><path d="M1217.97 824.868l7.643 1.878" fill="none" stroke="#fff" stroke-width="3"/><path d="M1212.46 839.252l-.477-7.855" fill="none" stroke="#fff" stroke-width="2.5"/><ellipse cx="1226.41" cy="752.294" rx="6.417" ry="6.321" fill="#fff"/><ellipse cx="1213.93" cy="741.685" rx="5.068" ry="5.084" fill="#fff"/><path d="M1216.83 755.265l-5.258 3.766M1232.3 744.835l-.246-7.388M1213.08 733.865l1.689-7.197M1237.86 746.43l7.39.185M1220.68 736.435l6.28-3.9M1197.3 741.897l7.39.186M1235.67 760.687l6.519 4.409" fill="none" stroke="#fff" stroke-width="3"/></svg>