<svg viewBox="0 0 1676 1056" xmlns="http://www.w3.org/2000/svg">
<title>Oro’s chart of the stars as he calculated they would appear at his awakening.</title>
<path stroke="#000" stroke-width="5" d="M-13.772-13.103h1697.35v1081.28H-13.772z"/><ellipse cx="947.042" cy="950.654" rx="12.998" ry="12.296" fill="#fff" stroke="#fff"/><path d="M960.499 935.263l9.173-10.152M923.308 919.986l11.244 15.973M972.341 950.357l17.644-10.204M948.837 934.106l-.192-14.571M948.588 920.525l9.253-16.172M910.931 949.414l16.072.024M909.919 966.126l14.838-5.165M937.62 1000.54l1.624-11.531M942.124 985.586l1.625-11.531M925.037 977.002l9.713-6.424M971.638 976.234l-9.963-10.979M960.178 984.765l-5.952-8.833" fill="none" stroke="#fff" stroke-width="3.5"/><circle cx="747.014" cy="296.469" r="9" fill="#fff" stroke="#fff"/><path d="M762.622 296.425l13.382-.09M724.615 286l10.28 2.817M726.344 295.104l5.828.315M754.248 283.848l7.431-8.313M724.05 309.664l13.054-6.419M744.01 317.027l1.414-8.451M747.924 284.179l-.081-13.251M763.512 311.905l-8.452-5.935" fill="none" stroke="#fff" stroke-width="3.5"/><circle cx="183.989" cy="579.464" r="9" fill="#fff" stroke="#fff"/><path d="M197.398 571.064l15.495-11.076M192.533 565.466l1.746-6.449M161.311 574.163l6.869.044M189.779 590.076l8.811 13.622M171.619 568.445l-12.953-12.708M162.127 587.37l2.999-2.996M164.286 598.589l8.02-7.405M182.296 598.977l-.198-7.024M180.053 566.658l.402-11.159M205.458 582.772l-4.239.067" fill="none" stroke="#fff" stroke-width="3.5"/><circle cx="187.955" cy="515.171" r="7.21" fill="#fff" stroke="#fff"/><path d="M197.276 510.577l5.635-3.591M214.482 494.917l3.08-3.138M169.722 523.051l7.064-5.264M198.637 519.388l6.456 3.579M175.631 502.779l2.964 2.933M185.062 529.793l.953-4.13M190.195 505.486l.257-7.686" fill="none" stroke="#fff" stroke-width="3.5"/><ellipse cx="350.694" cy="855.41" rx="7.362" ry="7.211" fill="#fff" stroke="#fff"/><path d="M362.335 846.679l8.322-5.265M362.847 853.132l9.644-.156M333.069 869.402l7.916-3.868M333.118 845.104l3.153 2.833M329.112 855.304l4.237.115M349.705 880.96l.423-13.678M346.583 841.641l-5.127-11.348M353.4 841.291l.554-12.441M370.518 875.833l-10.203-11.901" fill="none" stroke="#fff" stroke-width="3.5"/><ellipse cx="740.169" cy="652.298" rx="9.455" ry="9.181" fill="#fff" stroke="#fff"/><path d="M749.973 640.031l4.532-3.835M752.53 651.73l9.644-.157M730.673 676.875l4.496-13.151M716.832 648.061l4.234.206M720.207 659.995l7.138-3.149M733.698 639.966l-8.643-8.965M739.831 637.924l.13-7.773M762.116 673.518l-10.203-11.901" fill="none" stroke="#fff" stroke-width="3.5"/><circle cx="784.124" cy="615.598" r="5.939" fill="#fff" stroke="#fff"/><path d="M787.949 601.802l4.231-5.172M767.438 615.338l3.544-.135M793.806 610.715l7.213-5.096M787.02 624.875l3.28 6.597M774.964 631.165l4.098-7.082M775.979 606.125l-3.968-3.567M781.076 604.41l-.528-11.104M799.423 622.916l-6.143-3.231" fill="none" stroke="#fff" stroke-width="3.5"/><circle cx="1102.27" cy="119.473" r="8" fill="#fff" stroke="#fff"/><path d="M1115.64 116.442l11.373-4.408M1084.47 116.769l5.434 1.818M1117.11 122.465l4.226.28M1117.57 104.105l3.875-2.529M1097.42 107.966l-3.805-10.482M1084.35 128.131l7.116-3.843M1095.03 141.572l1.818-5.679M1104.83 108.728l4.527-8.948M1111.4 138.921l-5.184-8.933" fill="none" stroke="#fff" stroke-width="3.5"/><ellipse cx="1223.35" cy="335.026" rx="7.135" ry="7.126" fill="#fff" stroke="#fff"/><path d="M1232.86 332.535l8.353-3.794M1205.74 333.786l7.87.034M1230.91 343.119l3.603 2.225M1220.57 326.133l-6.342-5.838M1211.25 349.075l3.354-3.115M1222.37 354.181l.331-6.44M1229.5 328.32l1.795-9.866" fill="none" stroke="#fff" stroke-width="3.5"/><ellipse cx="1093.76" cy="227.26" rx="8.006" ry="7.995" fill="#fff" stroke="#fff"/><path d="M1099.78 217.525l3.764-10.592M1077.3 236.403l7.06-3.477M1100.65 236.809l11.385 10.676M1082.13 222.998l-5.752-3.055M1088.44 246.347l2.11-7.946M1119.97 221.172l-14.174 4.189M1093 215.765l-5.525-9.052" fill="none" stroke="#fff" stroke-width="3.5"/><circle cx="710.729" cy="347.689" r="9" fill="#fff" stroke="#fff"/><path d="M724.182 344.615l12.904-7.224M717.598 359.241l7.423 11.173M694.732 340.716l-9.085-4.398M685.279 354.549l14.2-3.156M697.58 366.331l4.927-7.509M703.665 374.852l-5.113-7.383M706.461 334.854l-1.42-8.903M715.511 333.328l.859-4.151" fill="none" stroke="#fff" stroke-width="3.5"/><circle cx="1036.77" cy="969.42" r="8.435" fill="#fff" stroke="#fff"/><path d="M1046.3 964.724l8.492-6.441M1046.39 973.186l8.52 6.644M1033.88 958.489l-1.664-2.654M1022.8 983.688l5.636-5.854M1022.04 958.486l5.456 4.844" fill="none" stroke="#fff" stroke-width="3.5"/><path d="M1048.06 987.892l-6.62-9.196" fill="none" stroke="#fff" stroke-width="3"/><path d="M1039.18 957.983l.092-9.015" fill="none" stroke="#fff" stroke-width="3.5"/><circle cx="1279.07" cy="832.086" r="9" fill="#fff" stroke="#fff"/><path d="M1290.06 827.742l9.76-4.283M1290.46 836.074l9.439 5.256M1266.1 828.23l-6.58-4.993M1274.44 820.564l-4.542-10.495M1262.18 842.445l7.036-2.567M1269.49 851.498l2.863-3.52M1288.12 851.243l-4.339-7.503M1285.27 819.913l6.144-9.876" fill="none" stroke="#fff" stroke-width="3.5"/><circle cx="1417.53" cy="492.076" r="9" fill="#fff" stroke="#fff"/><path d="M1432.67 494.03l10.655.29M1395.47 492.609l10.654.29M1426.51 502.001l4.057 3.156M1403.68 480.639l-6.579-4.992M1404.03 508.616l6.05-4.277M1423.49 514.445l-5.397-10.236M1422.24 480.286l4.795-10.98" fill="none" stroke="#fff" stroke-width="3.5"/><ellipse cx="1121.89" cy="625.612" rx="9.326" ry="9.398" fill="#fff" stroke="#fff"/><path d="M1138.67 628.992l12.441.006M1100.59 643.799l9.599-10.328M1096.2 617.339l13.791 2.935M1128.39 638.8l5.586 12.205M1113.99 612.791l-5.588-6.081M1133.42 615.367l8.222-6.415M1109.4 649.219l5.121-7.115M1123.98 610.493l.17-13.793" fill="none" stroke="#fff" stroke-width="3.5"/><ellipse cx="1254.7" cy="99.5" rx="9.409" ry="9.291" fill="#fff" stroke="#fff"/><ellipse cx="1267.94" cy="149.471" rx="3.853" ry="3.809" fill="#fff" stroke="#fff"/><path d="M1267.83 93.923l14.598-12.392M1270.93 102.51l9.57-.471M1227.02 86.633l11.296 8.823M1259.06 114.644l1.439 9.877M1252.93 86.752l-3.179-15.532M1227.79 112.141l12.784-4.709M1249.72 124.933l.221-9.332M1278.23 123.255l-11.632-11.189" fill="none" stroke="#fff" stroke-width="3.5"/><circle cx="141.704" cy="478.578" r="7" fill="#fff" stroke="#fff"/><path d="M151.748 473.835l5.778-.879M123.599 479.051l8.551.033M149.584 485.159l4.681 4.406M145.377 469.306l-.406-5.866M128.329 465.118l1.681 1.224" fill="none" stroke="#fff" stroke-width="3"/><path d="M137.749 492.483l.394-4.399" fill="none" stroke="#fff" stroke-width="3.5"/><ellipse cx="263.224" cy="422.469" rx="6.099" ry="6.008" fill="#fff" stroke="#fff"/><path d="M269.684 415.621l5.027-2.981M244.688 425.595l8.516-.761M255.129 438.869l3.63-7.742M272.372 425.493l8.653 3.767M266.091 412.052l1.153-10.706" fill="none" stroke="#fff" stroke-width="3"/><path d="M250.432 408.941l3.75 2.335" fill="none" stroke="#fff" stroke-width="3.5"/><ellipse cx="152.661" cy="427.931" rx="6.099" ry="6.008" fill="#fff" stroke="#fff"/><path d="M154.469 417.998l2.023-5.483M134.285 427.154l8.534.539M144.633 440.396l3.239-3.264M156.463 440.172l2.775 1.911M162.467 429.257l9.788 2.367" fill="none" stroke="#fff" stroke-width="3"/><path d="M138.215 417.064l3.997 1.88" fill="none" stroke="#fff" stroke-width="3.5"/><ellipse cx="234.862" cy="391.278" rx="6.099" ry="6.008" fill="#fff" stroke="#fff"/><path d="M238.144 384.008l2.209-2.885M226.159 409.688l4.66-7.428M238.445 399.313l3.706 6.583M227.292 386.925l-12.054-6.446M242.51 380.35l-5.159-8.05" fill="none" stroke="#fff" stroke-width="3"/><path d="M251.008 395.747l2.873.153" fill="none" stroke="#fff" stroke-width="3.5"/><ellipse cx="1242.59" cy="637.006" rx="6.099" ry="6.008" fill="#fff" stroke="#fff"/><path d="M1249.83 629.277l2.209-2.885M1231.73 626.167l-3.333-.326M1233.67 634.513l-4.247-.323M1234.19 645.418l2.339-2.917M1243.09 645.322l.157 3.366M1239.94 628.114l-.246-7.388M1250.55 639.198l7.323 2.881" fill="none" stroke="#fff" stroke-width="3"/><ellipse cx="1191" cy="587.393" rx="4.817" ry="4.833" fill="#fff" stroke="#fff"/><ellipse cx="1198.14" cy="593.551" rx="2.758" ry="2.809" fill="#fff" stroke="#fff"/><ellipse cx="1186.96" cy="596.838" rx="2.758" ry="2.809" fill="#fff" stroke="#fff"/><path d="M1207.37 585.549l2.732-2.395M1179.1 596.271l-4.247-.323M1185.37 606.233l-1.201 4.086M1197.51 607.322l.414 5.145M1204.06 600.516l2.131 4.702M1189.88 576.186l-1.432-7.252M1179.21 580.684l-2.597-2.502M1199.77 579.017l2.553-2.548M1210.06 593.623l7.788 1.128" fill="none" stroke="#fff" stroke-width="3"/><ellipse cx="1582.84" cy="384.026" rx="2.506" ry="2.469" fill="#fff" stroke="#fff"/><ellipse cx="1589.98" cy="382.155" rx="2.989" ry="2.944" fill="#fff" stroke="#fff"/><ellipse cx="1593.83" cy="362.993" rx="2.506" ry="2.469" fill="#fff" stroke="#fff"/><ellipse cx="1601.01" cy="367.788" rx="2.506" ry="2.469" fill="#fff" stroke="#fff"/><ellipse cx="1598.71" cy="380.655" rx="2.506" ry="2.469" fill="#fff" stroke="#fff"/><path d="M1585.93 354.388l-.043-5.916M1573.62 376.758l-4.247-.323M1573.07 386.733l-4.248-.323M1589.64 375.623l.306-7.386M1593.49 390.763l-1.562-3.342M1590.28 407.425l-.088-3.688M1601.63 396.566l-3.686-.134M1607.42 387.547l-2.88-2.306M1582.34 397.156l-3.916 5.942" fill="none" stroke="#fff" stroke-width="3"/><ellipse cx="1305.6" cy="792.78" rx="6.099" ry="6.008" fill="#fff" stroke="#fff"/><path d="M1312.84 785.052l2.209-2.885M1296.69 785.575l-5.287-3.959M1297.19 801.192l2.338-2.917M1306.09 801.097l.158 3.365M1298.01 812.102l.157 3.366M1306.33 783.096l3.212-6.371M1313.56 794.973l3.116 1.794" fill="none" stroke="#fff" stroke-width="3"/><ellipse cx="1199.35" cy="739.693" rx="6.099" ry="6.008" fill="#fff" stroke="#fff"/><path d="M1187.1 732.697l-.734-3.268M1207.71 750.413l2.267 2.492M1210.04 741.818l6.397.475" fill="none" stroke="#fff" stroke-width="3"/><ellipse cx="1182.92" cy="747.593" rx="6.417" ry="6.321" fill="#fff" stroke="#fff"/><ellipse cx="1190.65" cy="761.562" rx="4.223" ry="4.188" fill="#fff" stroke="#fff"/><ellipse cx="1201.68" cy="789.636" rx="4.223" ry="4.188" fill="#fff" stroke="#fff"/><ellipse cx="1202.19" cy="802.155" rx="4.223" ry="4.188" fill="#fff" stroke="#fff"/><path d="M1170.58 739.622l-6.083-3.681M1170.12 754.406l-6.503 5.057M1179.84 739.103l-.246-7.388M1190.45 750.187l7.324 2.881M1209.55 788.602l7.869-.118" fill="none" stroke="#fff" stroke-width="3"/><path d="M1189.56 787.553l1.654 10.556" fill="none" stroke="#fff" stroke-width="2.5"/><path d="M1194.37 808.001l-4.045 4.604" fill="none" stroke="#fff" stroke-width="3"/><path d="M1197.92 777.165l1.038 6.575" fill="none" stroke="#fff" stroke-width="2.5"/><path d="M1208.8 801.704l7.643 1.878" fill="none" stroke="#fff" stroke-width="3"/><path d="M1203.3 816.088l-.477-7.855" fill="none" stroke="#fff" stroke-width="2.5"/><ellipse cx="1218.39" cy="722.896" rx="6.417" ry="6.321" fill="#fff" stroke="#fff"/><path d="M1208.81 725.866l-5.258 3.766M1225.97 715.303l4.744-5.67M1212.02 714.337l-3.157-3.1M1229.99 725.843l10.639.966M1218.4 713.324l.195-12.21M1192.79 718.903l1.432 7.252M1220.9 732.234l4.016 6.768" fill="none" stroke="#fff" stroke-width="3"/></svg>